<?xml version="1.0" encoding="utf-8"?>
<!-- Svg Vector Icons : http://www.onlinewebfonts.com/icon -->
<!DOCTYPE svg PUBLIC "-//W3C//DTD SVG 1.1//EN" "http://www.w3.org/Graphics/SVG/1.1/DTD/svg11.dtd">
<svg version="1.1" xmlns="http://www.w3.org/2000/svg" xmlns:xlink="http://www.w3.org/1999/xlink" x="0px" y="0px" viewBox="0 0 1000 1000" enable-background="new 0 0 1000 1000" xml:space="preserve">
<metadata> Svg Vector Icons : http://www.onlinewebfonts.com/icon </metadata>
<g><g transform="translate(0.000000,511.000000) scale(0.100000,-0.100000)"><path d="M4658.9,5008c-629.6-60.2-1098.7-174.4-1602-389c-575.4-246.6-1072.7-585.5-1525.8-1040.6C751.1,2800.5,279.9,1840.1,125.6,711.3c-34.1-246.6-34.1-956.4,0-1203c178.5-1301.2,800-2420,1786.5-3220c1070.7-868.2,2550.4-1255.1,3899.7-1020.6c1830.6,318.8,3312.3,1606,3867.7,3356.4C9837.8-876.7,9900-449.6,9900,109.8c2,832.1-166.4,1519.8-547.4,2255.6c-705.7,1365.4-2029,2331.8-3534.8,2584.5C5450.9,5012.1,4951.6,5036.1,4658.9,5008z M4823.3,4597c2-36.1,4-483.2,6-992.5l4-928.3h-870.2c-555.4,0-868.2,8-868.2,20c0,42.1,210.5,545.4,322.8,767.9c190.5,381,431.1,771.9,635.6,1028.6l80.2,102.3l216.5,24.1c120.3,14,232.6,28.1,248.6,32.1c16,2,72.2,6,126.3,8C4817.3,4661.2,4819.3,4661.2,4823.3,4597z M5551.1,4639.1c156.4-18,186.5-28.1,226.6-74.2c130.3-150.4,495.2-735.8,649.6-1036.6c154.4-304.8,356.9-775.9,356.9-832.1c0-14-266.7-20-812-20h-812v992.5v992.5h106.3C5322.5,4661.2,5452.9,4651.1,5551.1,4639.1z M6507.5,4408.5c242.6-82.2,645.6-272.7,858.1-403c437.1-268.7,974.4-747.9,1243.1-1108.8c70.2-94.2,136.3-182.5,146.4-194.5c14-20-146.4-26.1-792-26.1h-810l-88.2,236.6c-182.5,493.2-435.1,998.5-685.7,1371.4c-64.2,96.2-116.3,180.5-116.3,186.5C6262.9,4490.7,6299,4480.7,6507.5,4408.5z M3508,4276.2c-274.7-425.1-485.2-838.1-673.7-1323.3l-106.3-276.7h-749.9c-411,0-747.9,4-747.9,6c0,18.1,230.6,314.8,362.9,467.2c445.1,515.3,1132.8,986.5,1792.5,1229.1C3628.3,4468.7,3632.3,4464.7,3508,4276.2z M2613.8,2327.3c0-6-28.1-120.3-60.1-256.6c-116.3-475.2-220.6-1193-220.6-1523.8c0-70.2-6-160.4-12-200.5l-14-76.2h-930.3c-796,0-930.3,4-940.4,30.1c-18,44.1,28.1,433.1,84.2,709.8c80.2,401,282.7,968.4,441.1,1239.1l50.1,86.2h800C2252.9,2335.4,2613.8,2331.3,2613.8,2327.3z M4829.3,1308.8V280.2l-1086.7-6l-1088.7-4v114.3c0,427.1,142.3,1347.4,280.7,1808.5l42.1,142.4H3903h928.3L4829.3,1308.8z M6924.6,2325.3c0-4,32.1-132.3,70.2-284.7c128.3-513.3,230.6-1227.1,230.6-1612V270.2l-1026.6,4l-1028.6,6l-6,1028.6l-4,1026.6h882.2C6527.6,2335.4,6924.6,2331.3,6924.6,2325.3z M9106,2080.7c250.6-521.3,445.1-1271.2,445.1-1714.3v-96.2h-990.5h-990.5l-12,146.4c-6,78.2-16,230.6-22.1,334.8c-26.1,391-96.2,842.1-202.5,1281.2c-38.1,158.4-68.2,290.7-68.2,294.7c0,4,387,8,858.1,8h860.2L9106,2080.7z M2321-174.9c6-70.2,16.1-220.5,22.1-336.8c22-393,94.2-850.1,202.5-1301.2c38.1-158.4,68.2-290.7,68.2-294.7c0-4-360.9-8-802-8h-800l-54.1,90.2c-162.4,276.7-354.9,812-437.1,1213c-54.1,266.7-102.3,685.7-84.2,733.8c10,24.1,154.4,28.1,942.4,28.1H2309L2321-174.9z M4831.3-1087.2l2-1028.6H3905h-928.3l-42.1,142.4C2796.2-1512.3,2653.9-592,2653.9-164.9v114.3l1088.7-4l1086.7-6L4831.3-1087.2z M7225.3-209c0-385-102.2-1098.7-230.6-1612c-38.1-152.4-70.2-280.7-70.2-284.7c0-6-397-10-882.2-10h-882.2v1018.5c0,561.4,6,1026.6,14,1032.6c6,8,471.2,14,1032.6,14h1018.5V-209z M9545.1-245.1C9519-622,9436.8-1017,9304.5-1404c-74.2-214.5-208.5-527.3-276.7-647.6l-44.1-74.2l-858.1,6c-473.2,2-860.2,8-860.2,14c0,4,30.1,132.3,68.2,284.7c110.3,455.1,210.5,1138.8,212.5,1449.6c0,60.2,6,158.4,12,216.5l14,104.3h992.5h992.5L9545.1-245.1z M2854.4-2781.4c148.4-382.9,403-896.2,601.5-1217.1c78.2-126.3,136.3-232.6,132.3-236.6c-12-14-455.1,164.4-643.6,260.7c-531.3,264.7-1034.6,659.6-1401.5,1096.7c-128.3,152.4-260.7,326.8-300.8,397c-12,18,140.4,24.1,735.8,24.1h747.9L2854.4-2781.4z M4831.3-3447.1c-2-545.4-8-996.5-14-1004.5c-14-14-380.9,20-571.4,52.1l-124.3,22.1l-136.4,188.5c-194.5,264.7-389,589.5-547.4,908.3c-130.3,260.7-342.9,757.9-342.9,802c0,16.1,272.7,22.1,868.2,22.1h868.2V-3447.1z M6784.2-2478.7c0-48.1-174.5-469.2-310.8-749.9c-238.6-489.2-671.7-1162.9-761.9-1182.9c-80.2-18.1-515.3-50.1-533.4-40.1c-10,8-18,409-18,1004.5v990.5h812C6537.6-2456.6,6784.2-2462.6,6784.2-2478.7z M8739.1-2510.8c-162.4-254.6-569.4-691.7-862.2-924.3c-308.8-248.6-691.7-485.2-1028.6-633.6c-168.4-72.2-553.4-212.5-587.5-212.5c-10,0,24,66.2,78.2,146.4c264.7,393,501.3,858.1,697.7,1373.4l116.3,304.8h810h810L8739.1-2510.8z"/></g></g>
</svg>