<svg width="28" height="29" viewBox="0 0 28 29" fill="none" xmlns="http://www.w3.org/2000/svg">
<g clip-path="url(#clip0_52_49)">
<path d="M27.4695 10.807C27.6828 10.6314 28 10.7957 28 11.0732V22.6562C28 24.1572 26.8242 25.375 25.375 25.375H2.625C1.17578 25.375 0 24.1572 0 22.6562V11.0789C0 10.7957 0.311719 10.6371 0.530469 10.8127C1.75547 11.7982 3.37969 13.05 8.95781 17.2471C10.1117 18.1193 12.0586 19.9545 14 19.9432C15.9523 19.9602 17.9375 18.0854 19.0477 17.2471C24.6258 13.05 26.2445 11.7926 27.4695 10.807ZM14 18.125C15.2688 18.1477 17.0953 16.4711 18.0141 15.7801C25.2711 10.3256 25.8234 9.8498 27.4969 8.49043C27.8141 8.23555 28 7.83906 28 7.41992V6.34375C28 4.84277 26.8242 3.625 25.375 3.625H2.625C1.17578 3.625 0 4.84277 0 6.34375V7.41992C0 7.83906 0.185937 8.22988 0.503125 8.49043C2.17656 9.84414 2.72891 10.3256 9.98594 15.7801C10.9047 16.4711 12.7312 18.1477 14 18.125Z" fill="white"/>
</g>
<defs>
<clipPath id="clip0_52_49">
<rect width="28" height="29" fill="white"/>
</clipPath>
</defs>
</svg>
