<svg width="28" height="29" viewBox="0 0 28 29" fill="none" xmlns="http://www.w3.org/2000/svg">
<g clip-path="url(#clip0_52_66)">
<path d="M26.9824 1.39251L21.2949 0.033132C20.6769 -0.114134 20.0426 0.220046 19.791 0.820437L17.166 7.16419C16.9363 7.71926 17.0894 8.37063 17.5433 8.75012L20.8574 11.5595C18.8887 15.9038 15.4488 19.5175 11.1668 21.5962L8.45428 18.1638C8.08241 17.6937 7.45897 17.5351 6.92303 17.773L0.798031 20.4917C0.212874 20.7579 -0.109782 21.415 0.0324055 22.055L1.34491 27.9456C1.48162 28.5573 2.00662 28.9991 2.62459 28.9991C16.6301 28.9991 27.9996 17.2462 27.9996 2.7179C27.9996 2.08352 27.5785 1.53411 26.9824 1.39251Z" fill="white"/>
</g>
<defs>
<clipPath id="clip0_52_66">
<rect width="28" height="29" fill="white"/>
</clipPath>
</defs>
</svg>
