<?xml version="1.0" encoding="utf-8"?>
<!-- Generator: Adobe Illustrator 22.1.0, SVG Export Plug-In . SVG Version: 6.00 Build 0)  -->
<svg version="1.1" id="Layer_1" xmlns="http://www.w3.org/2000/svg" xmlns:xlink="http://www.w3.org/1999/xlink" x="0px" y="0px"
	 viewBox="0 0 512 512" style="enable-background:new 0 0 512 512;" xml:space="preserve">
<g>
	<path d="M406,31H106c-41.3,0-75,33.8-75,75v300c0,41.3,33.8,75,75,75h300c41.3,0,75-33.8,75-75V106C481,64.7,447.3,31,406,31z
		 M143.5,143.5h225c4,0,7.9,0.9,11.5,2.5L256,290.6L132,146C135.6,144.3,139.5,143.5,143.5,143.5z M115.4,340.4V171.6
		c0-0.6,0-1.2,0.1-1.8l82.5,96.2l-81.6,81.6C115.7,345.3,115.4,342.8,115.4,340.4z M368.5,368.5h-225c-2.5,0-4.9-0.3-7.3-1l80-80
		l39.7,46.3l39.7-46.3l80,80C373.5,368.2,371,368.5,368.5,368.5L368.5,368.5z M396.6,340.4c0,2.5-0.3,4.9-1,7.3l-81.6-81.6
		l82.5-96.2c0,0.6,0.1,1.2,0.1,1.8V340.4z"/>
</g>
</svg>
